<svg version="1" xmlns="http://www.w3.org/2000/svg" width="1365.333" height="1365.333" viewBox="0 0 1024.000000 1024.000000"><path d="M0 512v512h1024V0H0v512zm409.7-284c19.5 76.9 25.3 144.7 17.7 208.5-3.8 32.6-9.5 59.5-23.9 113.5-13.7 51.4-15.6 61.3-17 90.5-.6 12.9.5 58.7 2.4 95.5 1.2 23.2-1.4 30.8-15.3 44.5-17 16.7-45 28.6-80.7 34.2-16.1 2.5-57.6 2.5-73.7 0-36.7-5.8-63.8-17.4-81.3-34.7-14-13.9-16.1-20.3-14.8-44.3 1.8-33.9 3-81 2.4-94.2-1.3-29.7-3.2-40-17-91.5-14.4-54-20.1-80.9-23.9-113.5-7.5-63.5-1.8-131 17.5-207.5 2.7-10.7 5.1-20.1 5.4-20.8.3-1 30.6-1.2 148.7-1l148.3.3 5.2 20.5zm486.6-11.8c4.2 3.2 38.1 168.1 44.2 215.1 6.2 47.8-8.1 91-41.6 126.2-11.9 12.4-22.4 20.9-36.7 29.6-24.7 14.9-52.6 23.9-82.4 26.4l-7.8.7V799h46.6c30.2 0 47.2.4 48.5 1 2.6 1.4 2.6 6.6-.1 8-1.3.7-33.1.9-100.5.8-105.2-.3-100.5-.1-100.5-4.8 0-4.6-.9-4.5 49.5-4.8l47.5-.3V614.2l-7.2-.7c-39.6-3.6-73.1-16.8-102.3-40.2C619.4 546 598.6 509 594 467.5c-2.1-18.3.3-39.5 10-91.9 10.7-56.9 32.4-156.2 34.7-158.9 1.5-1.6 8.9-1.7 128.8-1.7 100.1 0 127.5.3 128.8 1.2z"/><path d="M108.7 233.1c-12.9 51.7-18.4 91-19.4 137.1-1.3 59.4 4.6 98 28.6 186.3 13.9 51.4 14.6 56.5 14.6 103.5 0 20.1-.6 49.1-1.4 64.6-1.6 32.7-1.2 35 6.5 45.3 13.4 17.9 44 31.6 84.4 37.8 14 2.1 50.8 2.4 64.5.5 47.8-6.8 81.9-23.7 92.3-45.9 3.3-7 3.4-10.4 1.3-61.9-1.5-38.9-1-73.1 1.3-88.9 2.1-14.1 4.6-25 13.2-57 23.6-87.4 29.4-125.6 28.1-184.5-1-45.8-6.6-85.4-19.3-136.8l-4.8-19.2H113.4l-4.7 19.1zm286.7 78.6c5.2 22.9 7.1 45.2 6.3 74.2-1.4 53.5-10.9 108.2-32.2 185.6-13.2 48-14.1 60.9-10.4 143.5 1.1 24.2 1.1 24.6-1.1 30.4-4.4 11.7-20.8 24.7-39.7 31.5-19.8 7.2-37.8 10.1-62.4 10.1-25.6 0-44.8-3.3-64.6-10.9-16.1-6.3-30.1-16.9-35.9-27.3-3.5-6.4-3.6-7.6-1.5-62.8 2.1-56.9 1-68.1-12-115.5-31.4-115.4-39.4-196.7-25.3-258.7l1.6-6.8h275.6l1.6 6.7z"/><path d="M123.1 316.7c-4.2 19-5.5 33.2-5.4 60.3.1 54.7 10.4 116.5 32.4 195.1 6.1 22 9.4 37.8 10.8 51.8 1.5 13.9 1.3 50.3-.3 85.5-1.6 34.6-1.6 34.8 7.8 44.2 17.4 17.3 54.5 27.6 94.1 26.1 17.7-.7 30.2-2.6 44.5-6.8 24.6-7.2 42-19.9 44.9-33.1.4-1.8.4-9.6 0-17.3-.4-7.7-1.1-30.2-1.5-50-.9-49.6.4-61.5 11.5-101.4 30.9-110.5 40-195.9 27-254.4l-1.1-4.7H124.2l-1.1 4.7zM644.8 227.2c-.3 1.3-4.4 19.8-9.1 41.3C627 307.9 614 371 614 373.6c0 1.2 22.3 1.4 153.9 1.4h153.8l-2.4-12.8c-4.7-24.5-26.8-128.3-28.9-135.5-.5-1.6-7.2-1.7-122.9-1.7H645.2l-.4 2.2zm32 24c.7.7 1.2 2.3 1.2 3.7-.1 4.4-13.7 64-15 65.6-1.7 2.1-4.4 1.9-6.4-.4-1.7-1.8-1.4-3.4 5.5-34.6 4-18 7.9-33.4 8.7-34.1 1.7-1.7 4.4-1.8 6-.2zM611.5 386.2c-.6 2.1-5.3 30.4-7 42.6-2.2 16.3-2 36.6.5 49.7 11.4 58.9 61.6 107.5 126.1 121.9 29.4 6.6 60.6 5 89.9-4.5 13.1-4.2 35.6-15.6 47-23.7 10.7-7.6 29.3-25.6 36-34.9 16.5-22.9 25.1-44.7 28.1-70.8 1.7-15.1.4-29.3-5.8-65.8l-2.6-15.7H767.8c-123.8 0-155.9.3-156.3 1.2z"/></svg>