<?xml version="1.0" encoding="UTF-8"?>
<svg width="25px" height="86px" viewBox="0 0 25 86" version="1.1" xmlns="http://www.w3.org/2000/svg" xmlns:xlink="http://www.w3.org/1999/xlink">
    <!-- Generator: Sketch 40.3 (33839) - http://www.bohemiancoding.com/sketch -->
    <title>Shape</title>
    <desc>Created with Sketch.</desc>
    <defs></defs>
    <g id="Page-1" stroke="none" stroke-width="1" fill="none" fill-rule="evenodd">
        <g id="noun_152504_cc" fill="#000000">
            <g id="Group">
                <path d="M24.4,52.1 C24.4,47.4 23.4,42.8 21.8,38.4 C20.9,35.9 19.8,33.5 18.9,31 C17.4,26.9 16.6,22.6 16.4,18.1 C16.4,17.3 16.4,16.5 16.3,15.6 L16.3,15.7 C16.2,13.4 16.2,11.1 16.2,8.9 L16.2,6.4 L16.2,6.1 C16.2,5.7 16.4,5.4 16.5,5 C16.5,4.8 16.6,4.7 16.6,4.5 L16.6,3 C16.6,2.7 16.4,2.4 16.3,2 C16.2,1.8 16.2,1.5 16.2,1.3 C16.2,0.9 16,0.7 15.7,0.6 C15.3,0.5 14.7,0.4 14.3,0.4 L10.2,0.4 C9.8,0.4 9.5,0.5 9.1,0.6 C8.7,0.7 8.5,0.9 8.6,1.3 C8.6,1.5 8.6,1.8 8.5,2 C8.4,2.3 8.3,2.6 8.2,3 L8.2,4.5 C8.2,4.7 8.3,4.8 8.3,5 C8.4,5.4 8.6,5.8 8.6,6.2 C8.6,9.4 8.5,12.5 8.4,15.7 L8.4,17.3 C8.3,18.6 8.2,20 8.1,21.3 C7.5,26.1 6.2,30.7 4.2,35.1 C1.5,41 0.2,47.1 0.2,53.5 L0.2,76.4 C0.2,78.2 0.3,80 0.4,81.8 C0.5,83.3 1.2,84.1 2.6,84.4 C2.9,84.5 3.3,84.5 3.6,84.6 C8,85.2 12.3,85.4 16.7,85.1 C18.5,85 20.3,84.7 22.1,84.5 C23.4,84.3 24.1,83.6 24.3,82.2 C24.5,81 24.6,79.8 24.6,78.6 C24.5,69.9 24.5,61 24.4,52.1 L24.4,52.1 Z" id="Shape"></path>
            </g>
        </g>
    </g>
</svg>