<?xml version="1.0" encoding="UTF-8"?>
<svg width="52px" height="86px" viewBox="0 0 52 86" version="1.1" xmlns="http://www.w3.org/2000/svg" xmlns:xlink="http://www.w3.org/1999/xlink">
    <!-- Generator: Sketch 40.3 (33839) - http://www.bohemiancoding.com/sketch -->
    <title>Untitled 3</title>
    <desc>Created with Sketch.</desc>
    <defs></defs>
    <g id="Page-1" stroke="none" stroke-width="1" fill="none" fill-rule="evenodd">
        <g id="noun_539627_cc" fill="#FFFFFF">
            <g id="Group">
                <path d="M51.066,32.561 C50.666,28.478 49.109,20.581 47.65,13.663 C46.191,6.751 44.83,0.847 44.828,0.844 C44.756,0.525 44.473,0.3 44.146,0.3 L7.852,0.3 C7.526,0.3 7.243,0.526 7.17,0.843 C7.17,0.846 5.809,6.75 4.348,13.662 C2.889,20.58 1.332,28.477 0.932,32.56 C0.866,33.245 0.834,33.922 0.834,34.594 C0.832,41.061 3.857,46.85 8.502,51.001 C12.981,55.005 18.977,57.507 25.299,57.683 L25.299,84.3 L12,84.3 C11.613,84.3 11.299,84.613 11.299,85 C11.299,85.387 11.613,85.7 12,85.7 L40,85.7 C40.387,85.7 40.699,85.387 40.699,85 C40.699,84.613 40.387,84.3 40,84.3 L26.699,84.3 L26.699,57.684 C33.021,57.508 39.017,55.007 43.498,51.002 C48.141,46.851 51.166,41.062 51.166,34.595 C51.166,33.923 51.133,33.244 51.066,32.561 L51.066,32.561 Z M5.719,13.951 C6.448,10.503 7.151,7.304 7.672,4.967 C8.008,3.463 8.268,2.326 8.41,1.7 L43.59,1.7 C43.733,2.326 43.99,3.463 44.326,4.967 C45.109,8.472 46.301,13.918 47.371,19.236 C47.648,20.616 47.918,21.985 48.168,23.312 L3.83,23.312 C4.404,20.281 5.07,17.016 5.719,13.951 L5.719,13.951 Z M42.564,49.958 C38.176,53.886 32.215,56.301 26,56.3 C19.783,56.301 13.824,53.886 9.436,49.958 C5.043,46.027 2.233,40.614 2.233,34.595 C2.233,33.969 2.264,33.336 2.327,32.698 C2.513,30.785 2.975,27.93 3.569,24.713 L48.43,24.713 C49.024,27.93 49.489,30.788 49.672,32.698 C49.735,33.336 49.766,33.969 49.766,34.595 C49.766,40.614 46.955,46.028 42.564,49.958 L42.564,49.958 Z" id="Shape"></path>
                <path d="M10.313,15.684 C10.692,15.768 11.065,15.53 11.149,15.152 L13.149,6.152 C13.233,5.775 12.995,5.401 12.618,5.317 C12.241,5.233 11.866,5.471 11.782,5.848 L9.782,14.848 C9.697,15.226 9.936,15.6 10.313,15.684 L10.313,15.684 Z" id="Shape"></path>
            </g>
        </g>
    </g>
</svg>