<?xml version="1.0" encoding="UTF-8"?>
<svg width="52px" height="90px" viewBox="0 0 52 90" version="1.1" xmlns="http://www.w3.org/2000/svg" xmlns:xlink="http://www.w3.org/1999/xlink">
    <!-- Generator: Sketch 40.3 (33839) - http://www.bohemiancoding.com/sketch -->
    <title>Untitled 4</title>
    <desc>Created with Sketch.</desc>
    <defs></defs>
    <g id="Page-1" stroke="none" stroke-width="1" fill="none" fill-rule="evenodd">
        <g id="noun_158190_cc" fill="#FFFFFF">
            <g id="Group">
                <path d="M25.986,89.732 C15.234,89.732 6.486,85.247 6.486,79.733 L6.532,79.233 C7.301,62.952 7.186,60.748 5.336,53.813 C5.108,52.96 4.878,52.109 4.647,51.257 C1.151,38.366 -2.464,25.036 4.254,0.634 L4.356,0.267 L47.646,0.267 L47.748,0.634 C54.467,25.034 50.852,38.364 47.354,51.255 C47.123,52.108 46.892,52.96 46.665,53.813 C44.798,60.816 44.699,62.994 45.493,79.709 L45.518,80.233 L45.462,80.233 C44.953,85.516 36.412,89.732 25.986,89.732 L25.986,89.732 Z M7.496,80.021 C7.809,84.851 15.983,88.732 25.986,88.732 C36.187,88.732 44.486,84.695 44.486,79.733 L44.486,79.601 C43.693,62.887 43.799,60.673 45.697,53.555 C45.926,52.7 46.157,51.847 46.388,50.993 C49.831,38.297 53.392,25.172 46.882,1.267 L5.118,1.267 C-1.393,25.173 2.168,38.298 5.612,50.995 C5.843,51.849 6.074,52.701 6.302,53.555 C8.206,60.695 8.308,62.899 7.507,79.757 L7.496,80.021 L7.496,80.021 Z" id="Shape"></path>
                <path d="M45.339,15.644 C48.527,28.652 43.193,47.756 41.419,54.114 C41.258,54.692 41.123,55.175 41.023,55.549 C39.47,61.369 39.545,64.405 40.175,77.681 L40.175,77.76 C40.175,81.334 33.678,84.353 25.988,84.353 C18.298,84.353 11.801,81.334 11.801,77.768 C11.802,77.743 11.807,77.718 11.81,77.692 C11.818,77.633 11.826,77.575 11.832,77.483 C12.448,64.456 12.525,61.496 10.976,55.691 C10.879,55.326 10.748,54.858 10.593,54.299 C8.813,47.905 3.463,28.69 6.661,15.644 L45.339,15.644 L45.339,15.644 Z M46.112,14.644 L5.89,14.644 C1.919,29.062 8.749,51.216 10.012,55.949 C11.503,61.537 11.453,64.373 10.835,77.435 C10.826,77.543 10.803,77.651 10.803,77.76 C10.803,81.953 17.602,85.353 25.99,85.353 C34.377,85.353 41.177,81.954 41.177,77.76 L41.182,77.76 C40.547,64.396 40.488,61.442 41.991,55.807 C43.251,51.078 50.08,29.057 46.112,14.644 L46.112,14.644 L46.112,14.644 Z" id="Shape"></path>
            </g>
        </g>
    </g>
</svg>