<?xml version="1.0" encoding="UTF-8"?>
<svg width="72px" height="82px" viewBox="0 0 72 82" version="1.1" xmlns="http://www.w3.org/2000/svg" xmlns:xlink="http://www.w3.org/1999/xlink">
    <!-- Generator: Sketch 40.3 (33839) - http://www.bohemiancoding.com/sketch -->
    <title>Shape</title>
    <desc>Created with Sketch.</desc>
    <defs></defs>
    <g id="Page-1" stroke="none" stroke-width="1" fill="none" fill-rule="evenodd">
        <path d="M26.1,57.9 C26.1,56.2 27.4,54.9 29.1,54.9 L42.9,54.9 C44.6,54.9 45.9,56.2 45.9,57.9 L45.9,81.4 L67,81.4 C69.8,81.4 72,79.2 72,76.4 L72,34.1 C72,32.2 71.2,30.3 69.8,28.9 L40,2.3 C37.8,0.2 34.3,0.2 32.1,2.3 L2.2,29 C0.8,30.4 0,32.2 0,34.2 L0,76.4 C0,79.2 2.2,81.4 5,81.4 L26.1,81.4 L26.1,57.9 L26.1,57.9 Z M24.1,57.9 L24.1,79.4 L5,79.4 C3.3,79.4 2,78.1 2,76.4 L2,34.1 C2,32.7 2.6,31.3 3.5,30.4 L33.4,3.7 C34.8,2.3 37.1,2.3 38.6,3.7 L68.5,30.3 C69.5,31.3 70.1,32.6 70.1,34 L70.1,76.2 C70.1,77.9 68.8,79.2 67.1,79.2 L47.9,79.2 L47.9,57.9 C47.9,55.1 45.7,52.9 42.9,52.9 L29.1,52.9 C26.3,52.9 24.1,55.1 24.1,57.9 L24.1,57.9 Z" id="Shape" fill="#FFFFFF"></path>
    </g>
</svg>